<svg width="527" height="486" viewBox="0 0 527 486" fill="none" xmlns="http://www.w3.org/2000/svg">
<path d="M312.423 240.544H395.434V485.32H312.423V240.544Z" fill="#01B5F2"/>
<path d="M221.866 402.321V324.95H484.482V402.321H221.866Z" fill="#01B5F2"/>
<path d="M193.883 116.843H234.418V243.264H193.883V116.843Z" stroke="#01B5F2" stroke-width="3"/>
<path d="M146.392 199.38V161.471H281.118V199.38H146.392Z" stroke="#01B5F2" stroke-width="3"/>
<path d="M333.128 1.5H387.854V170.113H333.128V1.5Z" stroke="#01B5F2" stroke-width="3"/>
<path d="M270.154 111.922V60.677L449.778 60.677V111.922L270.154 111.922Z" stroke="#01B5F2" stroke-width="3"/>
<path d="M460.579 157.545H492.624V253.205H460.579V157.545Z" fill="#01B5F2"/>
<path d="M425.62 220.769V190.532H527V220.769H425.62Z" fill="#01B5F2"/>
<path d="M34.9587 32.3439H67.0041V128.004H34.9587V32.3439Z" fill="#01B5F2"/>
<path d="M0 95.5673L0 65.3301H101.38V95.5673H0Z" fill="#01B5F2"/>
</svg>
